<svg xmlns="http://www.w3.org/2000/svg" xmlns:xlink="http://www.w3.org/1999/xlink" x="0px" y="0px" viewBox="0 0 11.5 28" style="enable-background:new 0 0 11.5 28;" xml:space="preserve" class="mkdf-active-hover-right"><polygon class="st0" points="9.1,0 9.3,1.1 9.7,1.9 9.7,2.3 9.9,2.7 9.9,3.3 10.1,4 10.1,4.7 10.1,5.3 9.6,5.7 9.9,6.3 10.1,6.8&#10;&#9;10.7,7.3 10.7,7.6 10.6,7.9 10.7,8.9 10.7,9.5 11.5,10.6 11.2,11 11.5,11.2 10.9,11.8 10.5,12.5 10.7,12.7 11,12.7 11.1,12.9&#10;&#9;10.6,14.1 9.9,15 8.2,16.7 8.8,17.2 8.4,18 8.8,18.8 8.7,19.6 8.8,20.5 8.7,20.9 8.7,21.3 9.2,21.8 8.7,22.6 8.8,23 8.8,23.2&#10;&#9;9,23.4 8.6,23.7 8.4,24.4 8.4,24.9 7.9,25.2 7.6,26.1 7.9,26.8 8.5,27.6 6.9,28 0,28 0,0 "/></svg>