<svg xmlns="http://www.w3.org/2000/svg" viewBox="0 0 15 12"><path d="M1.5 10.1C1.1 9.5.9 8.7.9 7.6V4.4c0-1.1.2-1.9.6-2.5C2 1.3 2.7 1 3.7 1c1 0 1.7.2 2.1.7s.6 1.2.6 2.1v.6H4.6v-.7c0-.4-.1-.8-.2-1s-.3-.3-.6-.3c-.4 0-.6.1-.7.4-.1.2-.2.6-.2 1v4.3c0 .5.1.8.2 1 .1.2.4.4.7.4.3 0 .6-.1.7-.4.1-.3.2-.6.2-1.1V7h-.9V5.9h2.7v5H5.3l-.2-.9c-.3.7-.8 1-1.6 1-.9 0-1.6-.3-2-.9zM9 10.2c-.4-.6-.6-1.4-.6-2.4V4.2c0-1 .2-1.8.7-2.4.4-.5 1.1-.8 2.1-.8s1.8.3 2.2.8c.4.5.7 1.3.7 2.4v3.6c0 1-.2 1.8-.7 2.4-.4.5-1.1.8-2.2.8-1 0-1.7-.3-2.2-.8zm2.9-1c.1-.2.2-.5.2-.9V3.7c0-.4-.1-.7-.2-.9-.1-.2-.3-.3-.7-.3s-.6.1-.7.3c-.1.2-.2.5-.2.9v4.6c0 .4.1.7.2.9.1.2.3.3.7.3.4.1.6-.1.7-.3z"/></svg>